<?xml version="1.0" standalone="no"?>
<!DOCTYPE svg PUBLIC "-//W3C//DTD SVG 20010904//EN"
 "http://www.w3.org/TR/2001/REC-SVG-20010904/DTD/svg10.dtd">
<svg version="1.0" xmlns="http://www.w3.org/2000/svg"
 width="300.000000pt" height="198.000000pt" viewBox="0 0 300.000000 198.000000"
 preserveAspectRatio="xMidYMid meet">
<metadata>
Created by potrace 1.10, written by Peter Selinger 2001-2011
</metadata>
<g transform="translate(0.000000,198.000000) scale(0.100000,-0.100000)"
fill="#000000" stroke="none">
<path d="M1135 1728 c-60 -106 -111 -196 -113 -200 -2 -4 100 -8 227 -8 191 0
233 2 237 14 3 8 -20 57 -50 109 -31 52 -56 98 -56 101 0 3 22 6 49 6 41 0 51
4 66 26 9 14 15 27 13 28 -2 1 -47 -1 -101 -4 l-99 -5 -48 -82 -49 -83 34 0
c31 0 37 5 58 46 l23 46 42 -73 c23 -39 41 -74 39 -76 -3 -2 -70 -2 -149 -1
l-145 3 81 142 81 142 168 3 c92 2 167 1 167 -1 0 -8 -104 -182 -112 -187 -8
-5 21 -64 32 -64 3 0 31 46 62 103 32 56 71 126 88 155 l30 52 -232 0 -233 0
-110 -192z m225 22 c-6 -11 -16 -17 -25 -14 -27 11 -15 34 17 34 15 0 17 -3 8
-20z"/>
<path d="M1741 1863 c-7 -16 -58 -106 -113 -201 -55 -96 -97 -180 -94 -188 4
-11 31 -14 126 -14 l120 0 -26 -40 c-24 -36 -25 -43 -14 -70 7 -16 15 -30 19
-30 3 0 27 38 52 84 l46 84 -50 88 -51 87 -14 -30 c-14 -29 -13 -34 11 -75
l25 -43 -84 0 c-46 0 -84 1 -84 3 0 7 146 252 150 252 6 -1 153 -259 158 -277
3 -10 -138 -267 -156 -285 -4 -3 -32 38 -62 93 -52 94 -57 99 -88 99 -18 0
-31 -3 -29 -7 3 -5 42 -73 87 -153 92 -161 91 -160 97 -144 2 6 53 97 113 202
l109 190 -71 124 c-111 194 -161 278 -163 278 -1 0 -7 -12 -14 -27z m72 -366
c3 -8 1 -20 -4 -28 -7 -12 -11 -11 -26 4 -16 15 -16 19 -3 27 20 13 27 12 33
-3z"/>
<path d="M1028 1433 c10 -16 63 -106 117 -200 l99 -173 232 0 232 0 -100 173
c-56 94 -108 184 -117 199 -27 47 -45 35 -106 -73 l-58 -102 -23 39 c-13 21
-25 43 -27 47 -1 5 -17 7 -34 5 l-32 -3 51 -87 51 -88 99 0 99 0 -18 30 c-16
27 -22 30 -69 30 l-52 0 41 70 c23 38 44 70 47 70 4 -1 141 -230 148 -248 1
-4 -73 -6 -165 -5 l-168 1 -82 143 c-46 78 -83 143 -83 143 0 1 51 0 114 -2
109 -4 114 -3 130 19 9 13 16 27 16 31 0 5 -81 8 -181 8 l-180 0 19 -27z m337
-204 c9 -28 0 -34 -30 -21 -33 15 -33 42 -1 42 16 0 27 -7 31 -21z"/>
<path d="M191 825 l0 -115 59 0 c47 0 64 4 80 20 20 20 27 74 11 84 -5 3 -6
25 -4 49 5 38 2 47 -18 61 -15 10 -44 16 -76 16 l-52 0 0 -115z m103 79 c9 -3
16 -16 16 -29 0 -24 -17 -35 -56 -35 -21 0 -24 5 -24 35 0 30 3 35 24 35 13 0
31 -3 40 -6z m23 -110 c10 -27 -11 -49 -51 -52 -35 -3 -36 -2 -36 32 0 35 1
36 40 36 28 0 43 -5 47 -16z"/>
<path d="M380 844 c4 -85 8 -98 29 -115 32 -26 74 -24 108 5 26 23 28 30 31
115 4 87 3 91 -17 91 -20 0 -21 -5 -21 -90 0 -78 -2 -91 -19 -100 -58 -31 -81
-1 -81 106 0 73 -2 84 -17 84 -16 0 -18 -9 -13 -96z"/>
<path d="M590 825 l0 -115 45 0 c80 0 125 41 125 115 0 74 -45 115 -125 115
l-45 0 0 -115z m111 66 c19 -15 24 -29 24 -66 0 -54 -28 -85 -76 -85 l-29 0 0
85 0 85 29 0 c16 0 39 -9 52 -19z"/>
<path d="M827 919 c-31 -23 -50 -83 -41 -127 12 -61 71 -96 122 -72 18 8 28 8
30 1 2 -6 10 -11 18 -11 11 0 14 16 14 65 l0 65 -40 0 c-29 0 -40 -4 -40 -15
0 -9 9 -15 25 -15 30 0 31 -9 4 -44 -24 -30 -48 -33 -77 -8 -32 27 -33 101 -2
132 26 26 55 25 81 -1 16 -16 24 -18 33 -9 8 9 4 17 -17 36 -34 29 -76 31
-110 3z"/>
<path d="M1005 825 l0 -115 73 0 c57 0 72 3 72 15 0 12 -13 15 -55 15 l-55 0
0 35 c0 34 1 35 40 35 29 0 40 4 40 15 0 11 -11 15 -40 15 -39 0 -40 1 -40 35
l0 35 55 0 c42 0 55 3 55 15 0 12 -15 15 -72 15 l-73 0 0 -115z"/>
<path d="M1177 933 c-15 -15 -5 -23 28 -23 l35 0 0 -100 c0 -82 3 -100 15
-100 12 0 15 18 15 100 l0 100 35 0 c24 0 35 5 35 15 0 12 -15 15 -78 15 -43
0 -82 -3 -85 -7z"/>
<path d="M1470 826 c0 -96 3 -116 15 -116 12 0 15 15 16 68 l1 67 21 -63 c17
-52 25 -62 41 -60 15 2 25 17 36 55 23 77 33 77 27 1 -4 -62 -3 -68 14 -68 18
0 19 9 19 115 0 104 -2 115 -18 115 -14 0 -25 -20 -46 -86 -15 -47 -31 -83
-34 -79 -4 3 -19 41 -33 83 -17 50 -32 78 -42 80 -15 3 -17 -10 -17 -112z"/>
<path d="M1755 928 c-2 -7 -20 -59 -39 -115 -32 -93 -34 -103 -17 -103 12 0
21 11 27 31 8 29 13 32 48 33 35 1 41 -2 53 -31 7 -18 20 -33 28 -33 20 0 20
-2 -24 120 -25 70 -43 106 -54 108 -10 2 -19 -2 -22 -10z m45 -110 c0 -13 -8
-18 -25 -18 -29 0 -29 0 -13 53 l12 40 13 -29 c6 -16 12 -37 13 -46z"/>
<path d="M1900 825 c0 -96 3 -115 15 -115 12 0 15 16 16 83 l0 82 42 -82 c28
-57 47 -83 59 -83 16 0 18 11 18 115 0 104 -2 115 -18 115 -16 0 -17 -8 -14
-63 7 -107 0 -110 -46 -19 -60 117 -72 111 -72 -33z"/>
<path d="M2113 825 c-35 -103 -38 -115 -22 -115 12 0 21 11 27 32 7 29 11 32
51 33 39 1 43 -1 48 -28 5 -26 27 -46 39 -35 2 3 -12 55 -33 117 -50 147 -59
146 -110 -4z m66 43 c25 -67 25 -68 -9 -68 -27 0 -31 3 -25 18 3 9 9 29 12 45
7 33 11 34 22 5z"/>
<path d="M2324 930 c-36 -14 -54 -50 -54 -108 0 -46 4 -58 29 -83 31 -30 67
-37 102 -19 13 7 19 7 19 0 0 -5 7 -10 15 -10 12 0 15 14 15 65 l0 65 -40 0
c-29 0 -40 -4 -40 -15 0 -9 9 -15 25 -15 31 0 33 -22 5 -50 -45 -45 -100 -9
-100 65 0 74 55 110 100 65 25 -25 56 -15 37 11 -26 35 -71 46 -113 29z"/>
<path d="M2490 825 l0 -115 70 0 c56 0 70 3 70 15 0 12 -13 15 -55 15 l-55 0
0 35 c0 34 1 35 40 35 29 0 40 4 40 15 0 11 -11 15 -40 15 -39 0 -40 1 -40 35
l0 35 55 0 c42 0 55 3 55 15 0 12 -14 15 -70 15 l-70 0 0 -115z"/>
<path d="M2660 825 c0 -96 3 -115 15 -115 11 0 15 12 15 50 0 42 3 50 18 50
12 0 26 -17 42 -50 16 -33 30 -50 42 -50 17 0 17 4 -6 48 -24 48 -24 49 -5 65
30 26 29 73 -3 100 -13 11 -37 17 -69 17 l-49 0 0 -115z m98 76 c8 -4 12 -19
10 -32 -2 -20 -10 -25 -40 -27 -37 -3 -38 -3 -38 32 0 33 3 36 28 36 15 0 33
-4 40 -9z"/>
<path d="M953 623 l-43 -4 0 -65 0 -64 40 0 c22 0 40 5 40 10 0 6 -13 10 -30
10 -20 0 -30 5 -30 15 0 8 9 15 20 15 11 0 20 5 20 10 0 6 -9 10 -20 10 -13 0
-20 7 -20 20 0 15 7 20 29 20 16 0 31 6 35 15 3 8 4 14 3 13 -1 -1 -21 -3 -44
-5z"/>
<path d="M1408 576 l2 -51 -22 42 c-13 23 -27 42 -32 43 -5 0 -10 -27 -10 -60
-2 -68 11 -82 16 -17 l4 42 19 -42 c29 -63 45 -56 45 21 0 42 -4 66 -12 69
-10 3 -12 -9 -10 -47z"/>
<path d="M2030 616 c0 -9 7 -16 15 -16 12 0 15 -13 15 -55 0 -30 5 -55 10 -55
6 0 10 25 10 55 0 49 2 55 21 55 12 0 17 4 13 11 -3 6 -17 8 -31 4 -14 -3 -31
-1 -39 6 -11 9 -14 8 -14 -5z"/>
<path d="M540 555 l0 -65 41 0 c24 0 38 4 34 10 -3 6 -17 10 -31 10 -23 0 -24
3 -24 55 0 30 -4 55 -10 55 -6 0 -10 -28 -10 -65z"/>
<path d="M654 568 c-9 -29 -19 -59 -22 -65 -2 -7 1 -13 6 -13 6 0 12 8 14 17
4 23 46 24 54 1 3 -10 10 -18 16 -18 5 0 8 6 6 13 -3 6 -13 36 -22 65 -10 28
-21 52 -26 52 -5 0 -16 -24 -26 -52z"/>
<path d="M812 604 c-15 -10 -22 -25 -22 -49 0 -43 22 -65 65 -63 33 1 35 3 35
35 0 26 -4 33 -20 33 -22 0 -27 -16 -7 -23 19 -7 -7 -30 -29 -25 -13 2 -20 13
-22 34 -4 39 18 60 47 45 31 -17 38 -12 12 9 -28 24 -31 24 -59 4z"/>
<path d="M1016 607 c-27 -20 -16 -50 22 -62 17 -5 32 -13 32 -17 0 -16 -32
-21 -51 -9 -15 9 -19 8 -19 -4 0 -16 42 -30 65 -21 37 14 24 66 -16 66 -22 0
-35 18 -21 32 7 7 17 6 31 -1 13 -7 21 -8 21 -2 0 9 -31 31 -42 31 -2 0 -12
-6 -22 -13z"/>
<path d="M1090 608 c0 -4 10 -8 21 -8 20 0 21 -4 17 -55 -3 -36 -1 -55 6 -55
7 0 10 20 8 55 -4 50 -2 55 17 55 12 0 21 4 21 8 0 5 -20 9 -45 9 -25 0 -45
-4 -45 -9z"/>
<path d="M1197 613 c-11 -10 -8 -123 3 -123 6 0 10 28 10 65 0 65 -1 71 -13
58z"/>
<path d="M1252 604 c-42 -29 -21 -114 28 -114 47 0 67 73 30 110 -24 24 -29
24 -58 4z m47 -18 c7 -8 11 -27 9 -43 -2 -22 -8 -28 -28 -28 -20 0 -26 6 -28
28 -3 27 12 57 28 57 4 0 13 -6 19 -14z"/>
<path d="M1487 613 c-4 -3 -7 -33 -7 -65 l0 -59 43 3 42 3 1 53 c1 41 -2 55
-17 62 -20 11 -53 13 -62 3z m58 -33 c0 -22 -39 -19 -43 3 -3 15 1 18 20 15
12 -2 23 -10 23 -18z m8 -44 c7 -19 -1 -26 -30 -26 -16 0 -23 6 -23 20 0 14 7
20 24 20 13 0 26 -6 29 -14z"/>
<path d="M1590 569 c0 -59 11 -79 45 -79 33 0 45 20 45 77 0 69 -18 69 -22 1
-3 -45 -6 -53 -23 -53 -17 0 -21 8 -23 45 -5 67 -22 75 -22 9z"/>
<path d="M1707 613 c-4 -3 -7 -33 -7 -65 l0 -58 35 0 c44 0 70 34 60 80 -8 37
-66 66 -88 43z m54 -23 c34 -19 21 -80 -17 -80 -22 0 -24 4 -24 45 0 46 7 53
41 35z"/>
<path d="M1831 601 c-45 -45 -15 -113 47 -108 29 2 32 5 32 35 0 25 -4 32 -20
32 -22 0 -27 -16 -7 -23 19 -7 -7 -30 -29 -25 -24 4 -31 60 -10 77 11 9 20 10
36 1 24 -13 33 -10 22 6 -15 24 -50 26 -71 5z"/>
<path d="M1934 611 c-2 -2 -4 -31 -4 -63 l0 -58 40 0 c22 0 40 5 40 10 0 6
-13 10 -30 10 -20 0 -30 5 -30 15 0 8 9 15 20 15 11 0 20 5 20 10 0 6 -9 10
-20 10 -13 0 -20 7 -20 20 0 16 7 20 30 20 17 0 30 4 30 8 0 8 -68 11 -76 3z"/>
<path d="M2124 568 c-9 -29 -19 -59 -22 -65 -2 -7 1 -13 7 -13 6 0 11 6 11 14
0 22 48 27 55 5 4 -11 11 -19 17 -19 5 0 8 6 6 13 -3 6 -13 36 -22 65 -10 28
-21 52 -26 52 -5 0 -16 -24 -26 -52z"/>
<path d="M2215 611 c-8 -14 -2 -121 7 -121 4 0 8 29 8 65 0 64 -3 75 -15 56z"/>
<path d="M2260 555 c0 -37 4 -65 10 -65 6 0 8 11 4 25 -4 18 -2 25 8 25 8 0
20 -11 26 -25 6 -14 16 -25 22 -25 6 0 5 11 -4 28 -12 23 -12 29 0 40 8 7 14
17 14 22 0 17 -32 40 -56 40 -23 0 -24 -3 -24 -65z m55 25 c0 -8 -10 -16 -22
-18 -22 -3 -32 16 -16 32 12 11 38 2 38 -14z"/>
<path d="M2357 613 c-4 -3 -7 -33 -7 -65 l0 -58 40 0 c22 0 40 5 40 10 0 6
-13 10 -30 10 -20 0 -30 5 -30 15 0 8 9 15 20 15 11 0 20 5 20 10 0 6 -9 10
-20 10 -14 0 -20 7 -20 21 0 18 5 21 30 17 20 -3 30 0 30 9 0 14 -61 19 -73 6z"/>
<path d="M700 375 l0 -65 45 0 c25 0 45 5 45 10 0 6 -16 10 -35 10 -28 0 -35
4 -35 19 0 14 8 21 28 24 l27 4 -27 2 c-21 1 -28 6 -28 21 0 16 7 20 36 20 21
0 33 4 29 10 -3 6 -24 10 -46 10 l-39 0 0 -65z"/>
<path d="M800 375 c0 -42 4 -65 11 -65 8 0 10 14 6 40 -3 22 -2 40 2 40 5 0
16 -18 26 -40 10 -22 22 -40 27 -40 4 0 8 29 8 65 0 42 -4 65 -11 65 -8 0 -10
-14 -6 -40 3 -22 2 -40 -2 -40 -5 0 -16 18 -26 40 -10 22 -22 40 -27 40 -4 0
-8 -29 -8 -65z"/>
<path d="M940 430 c0 -5 7 -10 15 -10 12 0 15 -13 15 -55 0 -37 4 -55 13 -55
8 0 11 16 9 55 -4 50 -2 55 17 55 12 0 21 5 21 10 0 6 -20 10 -45 10 -25 0
-45 -4 -45 -10z"/>
<path d="M1046 424 c-35 -34 -11 -114 34 -114 22 0 50 36 50 65 0 29 -28 65
-50 65 -10 0 -26 -7 -34 -16z m52 -16 c25 -25 8 -78 -25 -78 -22 0 -37 44 -24
69 13 24 31 27 49 9z"/>
<path d="M1140 392 c0 -74 50 -109 84 -60 18 25 22 108 6 108 -5 0 -10 -20
-10 -44 0 -46 -19 -72 -45 -62 -11 4 -15 20 -15 56 0 27 -4 50 -10 50 -5 0
-10 -22 -10 -48z"/>
<path d="M1250 430 c0 -5 7 -10 15 -10 12 0 15 -13 15 -55 0 -37 4 -55 13 -55
8 0 11 16 9 55 -4 50 -2 55 17 55 12 0 21 5 21 10 0 6 -20 10 -45 10 -25 0
-45 -4 -45 -10z"/>
<path d="M1350 375 l0 -65 40 0 c22 0 40 5 40 10 0 6 -13 10 -30 10 -24 0 -30
4 -30 21 0 16 5 20 20 16 11 -3 20 -1 20 4 0 5 -9 9 -20 9 -13 0 -20 7 -20 20
0 16 7 20 30 20 17 0 30 5 30 10 0 6 -18 10 -40 10 l-40 0 0 -65z"/>
<path d="M1508 429 c-30 -17 -22 -49 12 -56 36 -7 47 -20 31 -36 -9 -9 -17 -8
-32 1 -25 16 -37 8 -19 -13 16 -19 54 -19 70 0 19 23 7 49 -28 60 -17 5 -32
13 -32 17 0 15 30 21 44 9 17 -14 29 -2 15 16 -13 15 -37 16 -61 2z"/>
<path d="M1590 375 c0 -37 4 -65 10 -65 6 0 10 28 10 65 0 37 -4 65 -10 65 -6
0 -10 -28 -10 -65z"/>
<path d="M1635 375 c0 -68 14 -93 16 -27 l1 37 11 -32 c7 -18 17 -33 22 -33 6
0 15 15 22 33 l11 32 1 -37 c2 -67 21 -41 21 28 0 72 -17 85 -33 23 -13 -52
-23 -55 -39 -8 -21 63 -33 57 -33 -16z"/>
<path d="M1760 375 c0 -37 4 -65 10 -65 6 0 10 14 10 31 0 17 4 28 10 24 15
-9 50 14 50 33 0 26 -20 42 -52 42 -28 0 -28 0 -28 -65z m63 39 c11 -11 -5
-34 -24 -34 -12 0 -19 7 -19 20 0 19 28 28 43 14z"/>
<path d="M1862 378 l-2 -68 35 0 c19 0 35 5 35 10 0 6 -13 10 -30 10 -28 0
-29 1 -33 58 l-3 57 -2 -67z"/>
<path d="M1940 375 c0 -37 4 -65 10 -65 6 0 10 28 10 65 0 37 -4 65 -10 65 -6
0 -10 -28 -10 -65z"/>
<path d="M1996 424 c-9 -8 -16 -30 -16 -48 0 -51 48 -84 78 -54 19 19 14 30
-7 17 -30 -19 -51 -4 -51 36 0 40 21 55 51 36 21 -13 26 -2 7 17 -17 17 -44
15 -62 -4z"/>
<path d="M2090 375 c0 -37 4 -65 10 -65 6 0 10 28 10 65 0 37 -4 65 -10 65 -6
0 -10 -28 -10 -65z"/>
<path d="M2120 430 c0 -5 7 -10 15 -10 12 0 15 -13 15 -55 0 -30 5 -55 10 -55
6 0 10 25 10 55 0 49 2 55 21 55 11 0 17 5 14 10 -3 6 -24 10 -46 10 -21 0
-39 -4 -39 -10z"/>
<path d="M2220 375 l0 -65 40 0 c22 0 40 5 40 10 0 6 -13 10 -30 10 -24 0 -30
4 -30 21 0 16 5 20 20 16 11 -3 20 -1 20 4 0 5 -9 9 -20 9 -13 0 -20 7 -20 20
0 16 7 20 30 20 17 0 30 5 30 10 0 6 -18 10 -40 10 l-40 0 0 -65z"/>
</g>
</svg>
